<mxfile host="app.diagrams.net" modified="2023-08-21T01:38:19.526Z" agent="Mozilla/5.0 (Macintosh; Intel Mac OS X 10_15_7) AppleWebKit/537.36 (KHTML, like Gecko) Chrome/116.0.0.0 Safari/537.36" etag="AT5JdIm1vvIXTfesR7sh" version="21.6.8" type="github">
  <diagram name="第 1 页" id="1NagZ9XdjRlGafcfy_to">
    <mxGraphModel dx="1455" dy="607" grid="1" gridSize="10" guides="1" tooltips="1" connect="1" arrows="1" fold="1" page="1" pageScale="1" pageWidth="827" pageHeight="1169" math="0" shadow="0">
      <root>
        <mxCell id="0" />
        <mxCell id="1" parent="0" />
        <mxCell id="bFa0GmdlMUITN7WIg2OX-7" value="" style="edgeStyle=orthogonalEdgeStyle;rounded=0;orthogonalLoop=1;jettySize=auto;html=1;" edge="1" parent="1" source="bFa0GmdlMUITN7WIg2OX-1" target="bFa0GmdlMUITN7WIg2OX-3">
          <mxGeometry relative="1" as="geometry" />
        </mxCell>
        <mxCell id="bFa0GmdlMUITN7WIg2OX-1" value="domain" style="rounded=0;whiteSpace=wrap;html=1;" vertex="1" parent="1">
          <mxGeometry x="70" y="310" width="120" height="60" as="geometry" />
        </mxCell>
        <mxCell id="bFa0GmdlMUITN7WIg2OX-2" value="业务接口请求&lt;br&gt;/pcs/v1/ecs/ecorder/home/index" style="rounded=0;whiteSpace=wrap;html=1;" vertex="1" parent="1">
          <mxGeometry x="250" y="210" width="220" height="70" as="geometry" />
        </mxCell>
        <mxCell id="bFa0GmdlMUITN7WIg2OX-3" value="静态资源请求&lt;br&gt;/webfrontstatic/" style="rounded=0;whiteSpace=wrap;html=1;" vertex="1" parent="1">
          <mxGeometry x="250" y="300" width="220" height="80" as="geometry" />
        </mxCell>
        <mxCell id="bFa0GmdlMUITN7WIg2OX-4" value="h5跳转&lt;br&gt;/webFront/domesticBase/order?type=" style="rounded=0;whiteSpace=wrap;html=1;" vertex="1" parent="1">
          <mxGeometry x="250" y="400" width="220" height="60" as="geometry" />
        </mxCell>
        <mxCell id="bFa0GmdlMUITN7WIg2OX-6" value="" style="endArrow=classic;html=1;rounded=0;entryX=-0.012;entryY=0.614;entryDx=0;entryDy=0;entryPerimeter=0;" edge="1" parent="1" target="bFa0GmdlMUITN7WIg2OX-2">
          <mxGeometry width="50" height="50" relative="1" as="geometry">
            <mxPoint x="190" y="340" as="sourcePoint" />
            <mxPoint x="240" y="290" as="targetPoint" />
          </mxGeometry>
        </mxCell>
        <mxCell id="bFa0GmdlMUITN7WIg2OX-8" value="" style="endArrow=classic;html=1;rounded=0;entryX=0;entryY=0.5;entryDx=0;entryDy=0;" edge="1" parent="1" target="bFa0GmdlMUITN7WIg2OX-4">
          <mxGeometry width="50" height="50" relative="1" as="geometry">
            <mxPoint x="190" y="340" as="sourcePoint" />
            <mxPoint x="240" y="290" as="targetPoint" />
          </mxGeometry>
        </mxCell>
      </root>
    </mxGraphModel>
  </diagram>
</mxfile>
